<?xml version='1.0' encoding='UTF-8' standalone='no'?>
<!-- Created with Fritzing (https://fritzing.org/) -->
<svg xmlns="http://www.w3.org/2000/svg" baseProfile="tiny" height="9.82003in" version="1.2" viewBox="0 0 10777.8 9820.03" width="10.7778in" x="0in"  xmlns:svg="http://www.w3.org/2000/svg" y="0in">
 <g id="watermark" >
  <g >
   <g >
    <path d="M10434.3,9733.92c-8.38889,0,-15.7083,4.51389,-19.75,11.2361l-38.8333,0l55,-56.5417c2.02778,-2.02778,4.01389,-4.47222,5.94444,-7.23611c2.06944,-3.08333,3.16667,-6.65278,3.16667,-10.6667c0,-3.875,-1.34722,-7.19444,-3.98611,-9.86111c-2.63889,-2.61111,-6.16667,-3.98611,-10.4722,-3.98611l-64.3889,0c-4.23611,0,-7.70833,0.833333,-10.3056,2.36111c-3.04167,1.80556,-4.58333,5.11111,-4.58333,9.81944c0,4.56944,1.54167,7.80556,4.58333,9.61111c2.61111,1.54167,6.08333,2.33333,10.3056,2.33333l43.7222,0l-55.1944,56.75c-2.02778,2.04167,-4.01389,4.375,-5.90278,7c-2.125,2.94444,-3.19444,6.55556,-3.19444,10.7083c0,3.88889,1.33333,7.23611,4,9.875c2.61111,2.61111,6.13889,3.95833,10.4722,3.95833l59.9306,0c4.06944,6.48611,11.2778,10.7778,19.4444,10.7778c12.7222,0,23.0556,-10.3333,23.0556,-23.0694C10457.3,9744.26,10447,9733.92,10434.3,9733.92zM10434.3,9765.35c-4.63889,0,-8.38889,-3.76389,-8.38889,-8.38889c0,-4.625,3.75,-8.38889,8.38889,-8.38889c4.61111,0,8.38889,3.76389,8.38889,8.38889C10442.7,9761.61,10438.9,9765.35,10434.3,9765.35z" fill="#8C8C8C" />
    <path d="M10199,9594.44c-12.6944,0,-23.0417,10.3472,-23.0417,23.0556c0,12.7222,10.3472,23.0556,23.0417,23.0556s23.0278,-10.3333,23.0278,-23.0556C10222,9604.79,10211.7,9594.44,10199,9594.44zM10199,9625.88c-4.625,0,-8.38889,-3.75,-8.38889,-8.375s3.76389,-8.375,8.38889,-8.375c4.59722,0,8.38889,3.75,8.38889,8.375S10203.6,9625.88,10199,9625.88z" fill="#8C8C8C" />
    <path d="M10317.3,9659.19c-2.68056,-1.54167,-6.09722,-2.34722,-10.1667,-2.34722l-20.3472,0L10286.8,9621.82c0,-4.05556,-0.791667,-7.47222,-2.30556,-10.125C10283.3,9609.51,10280.6,9606.94,10274.9,9606.94c-4.72222,0,-8.02778,1.61111,-9.84722,4.75c-1.51389,2.68056,-2.31944,6.08333,-2.31944,10.125l0,35.0139l-6.68056,0c-4.09722,0,-7.48611,0.833333,-10.1528,2.34722c-3.16667,1.79167,-4.73611,5.11111,-4.73611,9.83333c0,5.72222,2.56944,8.375,4.73611,9.61111c2.66667,1.54167,6.08333,2.33333,10.1528,2.33333l6.68056,0l0,60.5833c0,3.84722,0.361111,7.40278,1.125,10.6667c0.777778,3.41667,2.13889,6.44444,4.13889,8.95833c2.02778,2.58333,4.79167,4.61111,8.26389,6.05556c3.34722,1.36111,7.70833,2.02778,12.9167,2.02778l12.4444,0c4.05556,0,7.48611,-0.75,10.1528,-2.30556c2.13889,-1.23611,4.73611,-3.90278,4.73611,-9.625c0,-4.69444,-1.58333,-8.02778,-4.73611,-9.84722c-2.66667,-1.51389,-6.09722,-2.33333,-10.1528,-2.33333l-11.4028,0c-1.91667,0,-2.63889,-0.263889,-2.875,-0.333333c-0.194444,-0.472222,-0.486111,-1.43056,-0.486111,-3.20833L10286.8,9680.97l20.3472,0c4.09722,0,7.51389,-0.791667,10.1944,-2.33333c2.11111,-1.25,4.72222,-3.88889,4.72222,-9.61111C10322.1,9664.31,10320.5,9660.99,10317.3,9659.19z" fill="#8C8C8C" />
    <path d="M10199.9,9656.83l-16.5417,0c-4.05556,0,-7.47222,0.819444,-10.1528,2.34722c-3.13889,1.79167,-4.73611,5.11111,-4.73611,9.83333c0,5.72222,2.61111,8.38889,4.73611,9.59722c2.68056,1.56944,6.09722,2.33333,10.1528,2.33333l7.55556,0l0,74.4722c0,4.06944,0.791667,7.48611,2.31944,10.1389c1.81944,3.15278,5.09722,4.73611,9.83333,4.73611c5.70833,0,8.38889,-2.59722,9.61111,-4.73611c1.54167,-2.65278,2.33333,-6.08333,2.33333,-10.1389L10215,9671.94c0,-5.36111,-1.16667,-9.11111,-3.55556,-11.5278C10209,9658.03,10205.3,9656.83,10199.9,9656.83z" fill="#8C8C8C" />
    <path d="M10146.6,9659.19c-2.68056,-1.54167,-6.11111,-2.34722,-10.1667,-2.34722l-8.38889,0c-3.47222,0,-6.91667,0.875,-10.1944,2.59722c-3.13889,1.65278,-6.01389,3.76389,-8.55556,6.29167l-8.94444,8.38889l0,-3.43056c0,-4.04167,-0.763889,-7.47222,-2.33333,-10.125c-1.77778,-3.16667,-5.11111,-4.72222,-9.81944,-4.72222c-5.69444,0,-8.38889,2.55556,-9.625,4.72222c-1.52778,2.65278,-2.31944,6.08333,-2.31944,10.125l0,66.6806c-6.59722,4.06944,-10.9861,11.3333,-10.9861,19.6111c0,12.7361,10.3472,23.0694,23.0278,23.0694c12.7222,0,23.0556,-10.3333,23.0556,-23.0694c0,-8.27778,-4.40278,-15.5417,-11,-19.6111l0,-30.6944l24.1389,-21.7222c1.38889,-1.25,2.76389,-2.27778,4.125,-3.01389c1.16667,-0.625,2.41667,-0.930556,3.80556,-0.930556l4,0c4.05556,0,7.48611,-0.777778,10.1667,-2.34722c2.15278,-1.22222,4.70833,-3.875,4.70833,-9.59722C10151.4,9664.31,10149.8,9660.99,10146.6,9659.19zM10088.3,9765.35c-4.61111,0,-8.375,-3.76389,-8.375,-8.38889c0,-4.625,3.76389,-8.38889,8.375,-8.38889c4.625,0,8.38889,3.76389,8.38889,8.38889C10096.7,9761.61,10092.9,9765.35,10088.3,9765.35z" fill="#8C8C8C" />
    <path d="M10053.4,9610.32c-2.68056,-1.54167,-6.11111,-2.31944,-10.1528,-2.31944l-8.19444,0c-2.77778,0,-5.40278,0.0555556,-7.80556,0.222222c-2.44444,0.125,-4.79167,0.486111,-7.02778,0.972222c-2.33333,0.569444,-4.66667,1.51389,-6.88889,2.80556c-2.19444,1.29167,-4.43056,3.08333,-6.66667,5.30556c-4.63889,4.36111,-7.69444,9.11111,-9.05556,14.125c-1.30556,4.83333,-1.98611,10.2083,-1.98611,15.9861l0,9.41667l-6.70833,0c-4.05556,0,-7.48611,0.819444,-10.1389,2.34722c-3.15278,1.80556,-4.75,5.125,-4.75,9.83333c0,5.72222,2.56944,8.38889,4.73611,9.625c2.65278,1.54167,6.08333,2.30556,10.1389,2.30556l6.70833,0l0,74.4722c0,4.06944,0.791667,7.48611,2.31944,10.1389c1.80556,3.15278,5.09722,4.73611,9.83333,4.73611c5.70833,0,8.375,-2.59722,9.61111,-4.73611c1.54167,-2.65278,2.33333,-6.08333,2.33333,-10.1389l0,-74.4444l12.7778,0c4.06944,0,7.5,-0.791667,10.1667,-2.33333c2.15278,-1.25,4.72222,-3.88889,4.72222,-9.61111c0,-4.72222,-1.58333,-8.04167,-4.72222,-9.83333c-2.625,-1.54167,-6.05556,-2.36111,-10.125,-2.36111l-12.7778,0l0,-9.41667c0,-3.02778,0.263889,-5.69444,0.777778,-7.93056c0.444444,-1.95833,1.43056,-3.625,3.02778,-5.09722l0.0277778,-0.0555556l0.0277778,-0.0277778c1.13889,-1.13889,2.44444,-1.75,4.02778,-1.88889c2.08333,-0.208333,4.70833,-0.305556,7.83333,-0.305556l7.77778,0c4.04167,0,7.48611,-0.805556,10.1528,-2.33333c2.13889,-1.22222,4.70833,-3.90278,4.70833,-9.625C10058.1,9615.44,10056.5,9612.13,10053.4,9610.32z" fill="#8C8C8C" />
    <path d="M10775.5,9660.56c-1.23611,-2.16667,-3.91667,-4.72222,-9.625,-4.72222c-4.70833,0,-8.02778,1.56944,-9.81944,4.72222c-1.08333,1.84722,-1.76389,4.06944,-2.11111,6.625l-0.291667,-0.291667c-3,-3.27778,-6.47222,-5.83333,-10.375,-7.48611c-3.84722,-1.65278,-7.81944,-2.54167,-11.7917,-2.54167l-9.84722,0c-3.45833,0,-6.47222,0.208333,-8.88889,0.569444c-2.52778,0.361111,-4.88889,1.02778,-7.08333,1.94444c-2.19444,0.916667,-4.34722,2.08333,-6.375,3.52778c-1.93056,1.34722,-4.20833,3.13889,-6.75,5.23611c-2.61111,2.16667,-4.75,4.19444,-6.43056,6.02778c-1.76389,1.95833,-3.19444,4.06944,-4.25,6.31944c-0.958333,2.22222,-1.69444,4.68056,-2.04167,7.26389c-0.361111,2.47222,-0.569444,5.43056,-0.569444,8.76389l0,33.1389c0,3.33333,0.208333,6.26389,0.569444,8.76389c0.347222,2.61111,1.08333,5.01389,2.04167,7.23611c1.02778,2.27778,2.48611,4.41667,4.25,6.34722c1.65278,1.79167,3.80556,3.80556,6.43056,6.01389c2.58333,2.125,4.86111,3.88889,6.75,5.26389c2.02778,1.43056,4.15278,2.61111,6.375,3.52778c2.19444,0.902778,4.56944,1.55556,7.08333,1.94444c2.41667,0.361111,5.40278,0.541667,8.88889,0.541667l9.84722,0c4.13889,0,8.20833,-0.916667,12.0833,-2.76389c3.38889,-1.58333,6.83333,-4.04167,10.1389,-7.26389l0,19.9167c0,2.5,-0.347222,4.63889,-1,6.45833c-0.597222,1.65278,-2.20833,3.58333,-4.77778,5.63889c-2.13889,1.76389,-4.29167,3.01389,-6.34722,3.66667c-2.08333,0.680556,-4.73611,1.02778,-7.81944,1.02778l-30.5972,0c-4.06944,0,-7.47222,0.763889,-10.1667,2.30556c-2.11111,1.22222,-4.72222,3.91667,-4.72222,9.61111c0,4.73611,1.59722,8.04167,4.72222,9.86111c2.69444,1.51389,6.09722,2.31944,10.1667,2.31944l32.3056,0c3.43056,0,6.43056,-0.208333,8.86111,-0.569444c2.48611,-0.361111,4.875,-1.01389,7.125,-1.94444c2.125,-0.888889,4.30556,-2.08333,6.31944,-3.52778c1.98611,-1.40278,4.23611,-3.15278,6.76389,-5.26389c2.56944,-2.125,4.76389,-4.15278,6.43056,-5.98611c1.77778,-1.95833,3.18056,-4.08333,4.22222,-6.33333c0.986111,-2.25,1.70833,-4.69444,2.05556,-7.26389c0.347222,-2.52778,0.569444,-5.45833,0.569444,-8.76389l0,-109.694C10777.8,9666.64,10777.1,9663.21,10775.5,9660.56zM10753.7,9722.5c0,2.61111,-0.861111,4.86111,-2.61111,6.80556c-2.08333,2.38889,-5.47222,5.59722,-9.94444,9.52778l-0.0277778,0.0416667l-0.0277778,0.0555556c-1.93056,1.80556,-4.04167,3.29167,-6.29167,4.51389c-2.05556,1.13889,-4.51389,1.68056,-7.30556,1.68056L10723.3,9745.13c-3.08333,0,-5.69444,-0.291667,-7.81944,-1c-2.05556,-0.680556,-4.18056,-1.90278,-6.29167,-3.66667c-3.20833,-2.58333,-4.375,-4.47222,-4.80556,-5.61111c-0.680556,-1.81944,-1,-3.95833,-1,-6.45833l0,-30.6389c0,-2.5,0.319444,-4.66667,1,-6.48611c0.402778,-1.13889,1.56944,-3.01389,4.80556,-5.59722c2.11111,-1.76389,4.23611,-3,6.29167,-3.68056c2.125,-0.680556,4.75,-1,7.81944,-1l4.18056,0c2.94444,0,5.38889,0.513889,7.30556,1.56944c2.11111,1.13889,4.27778,2.65278,6.34722,4.5c4.47222,4.06944,7.83333,7.34722,9.94444,9.72222c1.77778,2.02778,2.61111,4.22222,2.61111,6.83333L10753.7,9722.5z" fill="#8C8C8C" />
    <path d="M10498,9594.44c-12.6944,0,-23.0556,10.3472,-23.0556,23.0556c0,12.7222,10.3611,23.0556,23.0556,23.0556s23.0556,-10.3333,23.0556,-23.0556C10521.1,9604.79,10510.7,9594.44,10498,9594.44zM10498,9625.88c-4.61111,0,-8.38889,-3.75,-8.38889,-8.375s3.76389,-8.375,8.38889,-8.375s8.38889,3.75,8.38889,8.375C10506.4,9622.13,10502.6,9625.88,10498,9625.88z" fill="#8C8C8C" />
    <path d="M10646.4,9737.06l-1.48611,-47.4861c-0.152778,-2.47222,-0.291667,-4.69444,-0.430556,-6.79167c-0.138889,-2.25,-0.513889,-4.47222,-1.13889,-6.61111c-0.625,-2.19444,-1.52778,-4.29167,-2.75,-6.29167c-1.29167,-2.02778,-3,-4.01389,-5.13889,-5.83333c-3.125,-2.66667,-6.15278,-4.63889,-8.97222,-5.77778c-2.875,-1.16667,-6.40278,-1.76389,-10.4722,-1.76389l-14.0556,0c-3.59722,0,-6.95833,0.805556,-9.94444,2.27778c-2.73611,1.36111,-5.41667,2.81944,-7.94444,4.375l-0.0416667,0.0277778l-0.0416667,0.0416667l-11.625,7.70833l0,-0.569444c0,-4.04167,-0.791667,-7.48611,-2.33333,-10.1806c-1.79167,-3.13889,-5.09722,-4.70833,-9.81944,-4.70833c-5.70833,0,-8.38889,2.56944,-9.625,4.70833c-1.51389,2.69444,-2.33333,6.08333,-2.33333,10.1806l0,84.7083c0,4.09722,0.819444,7.48611,2.33333,10.1944c1.25,2.125,3.91667,4.69444,9.625,4.69444c4.72222,0,8.02778,-1.58333,9.81944,-4.69444c1.54167,-2.70833,2.33333,-6.09722,2.33333,-10.1944L10572.4,9699.03l27.125,-16.875c0.555556,-0.333333,1.13889,-0.666667,1.68056,-0.875c0.430556,-0.222222,0.972222,-0.347222,1.59722,-0.430556c0.680556,-0.166667,1.625,-0.222222,2.70833,-0.222222l5.02778,0c2.61111,0,4.63889,0.291667,6.04167,0.819444c1.13889,0.402778,1.98611,1.05556,2.5,1.98611c0.694444,1.08333,1.11111,2.5,1.36111,4.20833c0.277778,1.93056,0.472222,4.29167,0.625,7l1.33333,43.0139c-6.34722,4.125,-10.5833,11.2639,-10.5833,19.3611c0,12.7361,10.3611,23.0694,23.0556,23.0694c12.7222,0,23.0556,-10.3333,23.0556,-23.0694C10657.9,9748.51,10653.3,9741.04,10646.4,9737.06zM10634.8,9765.35c-4.63889,0,-8.36111,-3.76389,-8.36111,-8.38889c0,-4.625,3.72222,-8.38889,8.36111,-8.38889c4.625,0,8.38889,3.76389,8.38889,8.38889C10643.2,9761.61,10639.5,9765.35,10634.8,9765.35z" fill="#8C8C8C" />
    <path d="M10498.9,9656.83l-16.5694,0c-4.06944,0,-7.48611,0.819444,-10.1528,2.34722c-3.13889,1.79167,-4.73611,5.11111,-4.73611,9.83333c0,5.72222,2.58333,8.38889,4.73611,9.59722c2.66667,1.56944,6.08333,2.33333,10.1528,2.33333l7.56944,0l0,74.4722c0,4.06944,0.763889,7.48611,2.33333,10.1389c1.76389,3.15278,5.06944,4.73611,9.81944,4.73611c5.69444,0,8.38889,-2.59722,9.59722,-4.73611c1.54167,-2.65278,2.36111,-6.08333,2.36111,-10.1389L10514,9671.94c0,-5.36111,-1.18056,-9.11111,-3.59722,-11.5278C10508,9658.03,10504.2,9656.83,10498.9,9656.83z" fill="#8C8C8C" />
   </g>
  </g>
 </g>
 <g partID="11620">
  <g id="schematic" >
   <rect fill="none" height="9455.56" stroke="#444" stroke-width="11.1111" width="10733.3" x="22.2222"  y="22.2222"/>
  </g>
 </g>
 <g partID="10010">
  <g transform="translate(1333.33,800)">
   <g id="schematic" >
    <rect fill="none" height="1677.78" stroke="#444" stroke-width="11.1111" width="222.222" x="22.2222"  y="22.2222"/>
    <circle cx="77.7778" cy="1688.89" fill="#c1a266" id="connector0pin" r="22.2222" stroke="#6c5634" stroke-width="8.88889" />
    <circle cx="188.889" cy="1688.89" fill="#c1a266" id="connector1pin" r="22.2222" stroke="#6c5634" stroke-width="8.88889" />
   </g>
  </g>
 </g>
 <g partID="10020">
  <g transform="translate(1111.11,3411.11)">
   <g id="schematic" >
    <rect fill="none" height="133.333" stroke="#444" stroke-width="11.1111" width="488.889" x="22.2222"  y="22.2222"/>
    <circle cx="22.2222" cy="88.8889" fill="#c1a266" id="connector0pin" r="22.2222" stroke="#6c5634" stroke-width="8.88889" />
    <circle cx="511.111" cy="88.8889" fill="#c1a266" id="connector1pin" r="22.2222" stroke="#6c5634" stroke-width="8.88889" />
   </g>
  </g>
 </g>
 <g partID="10030">
  <g transform="translate(1933.33,3411.11)">
   <g id="schematic" >
    <rect fill="none" height="288.889" stroke="#444" stroke-width="11.1111" width="211.111" x="22.2222"  y="22.2222"/>
    <circle cx="66.6667" cy="311.111" fill="#c1a266" id="connector0pin" r="22.2222" stroke="#6c5634" stroke-width="8.88889" />
    <circle cx="188.889" cy="311.111" fill="#c1a266" id="connector1pin" r="22.2222" stroke="#6c5634" stroke-width="8.88889" />
   </g>
  </g>
 </g>
 <g partID="10040">
  <g transform="translate(3000,800)">
   <g id="schematic" >
    <rect fill="none" height="1677.78" stroke="#444" stroke-width="11.1111" width="222.222" x="22.2222"  y="22.2222"/>
    <circle cx="77.7778" cy="1688.89" fill="#c1a266" id="connector0pin" r="22.2222" stroke="#6c5634" stroke-width="8.88889" />
    <circle cx="188.889" cy="1688.89" fill="#c1a266" id="connector1pin" r="22.2222" stroke="#6c5634" stroke-width="8.88889" />
   </g>
  </g>
 </g>
 <g partID="10050">
  <g transform="translate(2777.78,3411.11)">
   <g id="schematic" >
    <rect fill="none" height="133.333" stroke="#444" stroke-width="11.1111" width="488.889" x="22.2222"  y="22.2222"/>
    <circle cx="22.2222" cy="88.8889" fill="#c1a266" id="connector0pin" r="22.2222" stroke="#6c5634" stroke-width="8.88889" />
    <circle cx="511.111" cy="88.8889" fill="#c1a266" id="connector1pin" r="22.2222" stroke="#6c5634" stroke-width="8.88889" />
   </g>
  </g>
 </g>
 <g partID="10060">
  <g transform="translate(3600,3411.11)">
   <g id="schematic" >
    <rect fill="none" height="288.889" stroke="#444" stroke-width="11.1111" width="211.111" x="22.2222"  y="22.2222"/>
    <circle cx="66.6667" cy="311.111" fill="#c1a266" id="connector0pin" r="22.2222" stroke="#6c5634" stroke-width="8.88889" />
    <circle cx="188.889" cy="311.111" fill="#c1a266" id="connector1pin" r="22.2222" stroke="#6c5634" stroke-width="8.88889" />
   </g>
  </g>
 </g>
 <g partID="10070">
  <g transform="translate(4666.67,800)">
   <g id="schematic" >
    <rect fill="none" height="1677.78" stroke="#444" stroke-width="11.1111" width="222.222" x="22.2222"  y="22.2222"/>
    <circle cx="77.7778" cy="1688.89" fill="#c1a266" id="connector0pin" r="22.2222" stroke="#6c5634" stroke-width="8.88889" />
    <circle cx="188.889" cy="1688.89" fill="#c1a266" id="connector1pin" r="22.2222" stroke="#6c5634" stroke-width="8.88889" />
   </g>
  </g>
 </g>
 <g partID="10080">
  <g transform="translate(4444.44,3411.11)">
   <g id="schematic" >
    <rect fill="none" height="133.333" stroke="#444" stroke-width="11.1111" width="488.889" x="22.2222"  y="22.2222"/>
    <circle cx="22.2222" cy="88.8889" fill="#c1a266" id="connector0pin" r="22.2222" stroke="#6c5634" stroke-width="8.88889" />
    <circle cx="511.111" cy="88.8889" fill="#c1a266" id="connector1pin" r="22.2222" stroke="#6c5634" stroke-width="8.88889" />
   </g>
  </g>
 </g>
 <g partID="10090">
  <g transform="translate(5266.67,3411.11)">
   <g id="schematic" >
    <rect fill="none" height="288.889" stroke="#444" stroke-width="11.1111" width="211.111" x="22.2222"  y="22.2222"/>
    <circle cx="66.6667" cy="311.111" fill="#c1a266" id="connector0pin" r="22.2222" stroke="#6c5634" stroke-width="8.88889" />
    <circle cx="188.889" cy="311.111" fill="#c1a266" id="connector1pin" r="22.2222" stroke="#6c5634" stroke-width="8.88889" />
   </g>
  </g>
 </g>
 <g partID="10100">
  <g transform="translate(6333.33,800)">
   <g id="schematic" >
    <rect fill="none" height="1677.78" stroke="#444" stroke-width="11.1111" width="222.222" x="22.2222"  y="22.2222"/>
    <circle cx="77.7778" cy="1688.89" fill="#c1a266" id="connector0pin" r="22.2222" stroke="#6c5634" stroke-width="8.88889" />
    <circle cx="188.889" cy="1688.89" fill="#c1a266" id="connector1pin" r="22.2222" stroke="#6c5634" stroke-width="8.88889" />
   </g>
  </g>
 </g>
 <g partID="10110">
  <g transform="translate(6111.11,3411.11)">
   <g id="schematic" >
    <rect fill="none" height="133.333" stroke="#444" stroke-width="11.1111" width="488.889" x="22.2222"  y="22.2222"/>
    <circle cx="22.2222" cy="88.8889" fill="#c1a266" id="connector0pin" r="22.2222" stroke="#6c5634" stroke-width="8.88889" />
    <circle cx="511.111" cy="88.8889" fill="#c1a266" id="connector1pin" r="22.2222" stroke="#6c5634" stroke-width="8.88889" />
   </g>
  </g>
 </g>
 <g partID="10120">
  <g transform="translate(6933.33,3411.11)">
   <g id="schematic" >
    <rect fill="none" height="288.889" stroke="#444" stroke-width="11.1111" width="211.111" x="22.2222"  y="22.2222"/>
    <circle cx="66.6667" cy="311.111" fill="#c1a266" id="connector0pin" r="22.2222" stroke="#6c5634" stroke-width="8.88889" />
    <circle cx="188.889" cy="311.111" fill="#c1a266" id="connector1pin" r="22.2222" stroke="#6c5634" stroke-width="8.88889" />
   </g>
  </g>
 </g>
 <g partID="10130">
  <g transform="translate(8000,800)">
   <g id="schematic" >
    <rect fill="none" height="1677.78" stroke="#444" stroke-width="11.1111" width="222.222" x="22.2222"  y="22.2222"/>
    <circle cx="77.7778" cy="1688.89" fill="#c1a266" id="connector0pin" r="22.2222" stroke="#6c5634" stroke-width="8.88889" />
    <circle cx="188.889" cy="1688.89" fill="#c1a266" id="connector1pin" r="22.2222" stroke="#6c5634" stroke-width="8.88889" />
   </g>
  </g>
 </g>
 <g partID="10140">
  <g transform="translate(7777.78,3411.11)">
   <g id="schematic" >
    <rect fill="none" height="133.333" stroke="#444" stroke-width="11.1111" width="488.889" x="22.2222"  y="22.2222"/>
    <circle cx="22.2222" cy="88.8889" fill="#c1a266" id="connector0pin" r="22.2222" stroke="#6c5634" stroke-width="8.88889" />
    <circle cx="511.111" cy="88.8889" fill="#c1a266" id="connector1pin" r="22.2222" stroke="#6c5634" stroke-width="8.88889" />
   </g>
  </g>
 </g>
 <g partID="10150">
  <g transform="translate(8600,3411.11)">
   <g id="schematic" >
    <rect fill="none" height="288.889" stroke="#444" stroke-width="11.1111" width="211.111" x="22.2222"  y="22.2222"/>
    <circle cx="66.6667" cy="311.111" fill="#c1a266" id="connector0pin" r="22.2222" stroke="#6c5634" stroke-width="8.88889" />
    <circle cx="188.889" cy="311.111" fill="#c1a266" id="connector1pin" r="22.2222" stroke="#6c5634" stroke-width="8.88889" />
   </g>
  </g>
 </g>
 <g partID="10160">
  <g transform="translate(4388.89,5611.11)">
   <g gorn="0.1" id="schematic">
    <rect fill="none" height="1700" stroke="#000000" stroke-linecap="round" stroke-linejoin="round" stroke-width="12.5" width="693.75" x="200" y="200"/>
    <g transform="matrix(1, 0, 0, 1, 449.953, 902.778)">
     <g>
      <text font-family="'DroidSans'" font-size="38.8889" gorn="0.1.1.0" id="label">ESP32-S3</text>
     </g>
    </g>
    <g transform="matrix(1, 0, 0, 1, 454.668, 760.511)">
     <g>
      <text font-family="'DroidSans'" font-size="38.8889" gorn="0.1.2.0" id="label_00000117654148860742301400000011236792539044143029_">Adafruit</text>
     </g>
    </g>
    <g transform="matrix(1, 0, 0, 1, 465.964, 832.176)">
     <g>
      <text font-family="'DroidSans'" font-size="38.8889" gorn="0.1.3.0" id="label_00000093148953107753490030000017343348511518548409_">Feather</text>
     </g>
    </g>
    <line fill="none" stroke="#787878" stroke-linecap="round" stroke-linejoin="round" stroke-width="9.72222" x1="4.86111" x2="200" y1="500" y2="500"/>
    <rect fill="none" gorn="0.1.5" height="9.72222" id="connector63pin" width="200" x="0" y="495.139"/>
    <g fill="none" gorn="0.1.6" height="9.72222" id="connector63terminal" width="0" x="0" y="495.139"/>
    <g transform="matrix(1, 0, 0, 1, 219.444, 509.722)">
     <g>
      <text fill="#8C8C8C" font-family="'DroidSans'" font-size="38.8889" gorn="0.1.7.0" id="label63">RESET</text>
     </g>
    </g>
    <line fill="none" stroke="#787878" stroke-linecap="round" stroke-linejoin="round" stroke-width="9.72222" x1="4.86111" x2="200" y1="600" y2="600"/>
    <rect fill="none" gorn="0.1.9" height="9.72222" id="connector59pin" width="200" x="0" y="595.139"/>
    <g fill="none" gorn="0.1.10" height="9.72222" id="connector59terminal" width="0" x="0" y="595.139"/>
    <g transform="matrix(1, 0, 0, 1, 219.444, 609.722)">
     <g>
      <text fill="#8C8C8C" font-family="'DroidSans'" font-size="38.8889" gorn="0.1.11.0" id="label59">A0</text>
     </g>
    </g>
    <line fill="none" stroke="#787878" stroke-linecap="round" stroke-linejoin="round" stroke-width="9.72222" x1="4.86111" x2="200" y1="700" y2="700"/>
    <rect fill="none" gorn="0.1.13" height="9.72222" id="connector58pin" width="200" x="0" y="695.139"/>
    <g fill="none" gorn="0.1.14" height="9.72222" id="connector58terminal" width="0" x="0" y="695.139"/>
    <g transform="matrix(1, 0, 0, 1, 219.444, 709.722)">
     <g>
      <text fill="#8C8C8C" font-family="'DroidSans'" font-size="38.8889" gorn="0.1.15.0" id="label58">A1</text>
     </g>
    </g>
    <line fill="none" stroke="#787878" stroke-linecap="round" stroke-linejoin="round" stroke-width="9.72222" x1="4.86111" x2="200" y1="800" y2="800"/>
    <rect fill="none" gorn="0.1.17" height="9.72222" id="connector57pin" width="200" x="0" y="795.139"/>
    <g fill="none" gorn="0.1.18" height="9.72222" id="connector57terminal" width="0" x="0" y="795.139"/>
    <g transform="matrix(1, 0, 0, 1, 219.444, 809.722)">
     <g>
      <text fill="#8C8C8C" font-family="'DroidSans'" font-size="38.8889" gorn="0.1.19.0" id="label57">A2</text>
     </g>
    </g>
    <line fill="none" stroke="#787878" stroke-linecap="round" stroke-linejoin="round" stroke-width="9.72222" x1="4.86111" x2="200" y1="900" y2="900"/>
    <rect fill="none" gorn="0.1.21" height="9.72222" id="connector56pin" width="200" x="0" y="895.139"/>
    <g fill="none" gorn="0.1.22" height="9.72222" id="connector56terminal" width="0" x="0" y="895.139"/>
    <g transform="matrix(1, 0, 0, 1, 219.444, 909.722)">
     <g>
      <text fill="#8C8C8C" font-family="'DroidSans'" font-size="38.8889" gorn="0.1.23.0" id="label56">A3</text>
     </g>
    </g>
    <line fill="none" stroke="#787878" stroke-linecap="round" stroke-linejoin="round" stroke-width="9.72222" x1="4.86111" x2="200" y1="1000" y2="1000"/>
    <rect fill="none" gorn="0.1.25" height="9.72222" id="connector55pin" width="200" x="0" y="995.139"/>
    <g fill="none" gorn="0.1.26" height="9.72222" id="connector55terminal" width="0" x="0" y="995.139"/>
    <g transform="matrix(1, 0, 0, 1, 219.444, 1009.72)">
     <g>
      <text fill="#8C8C8C" font-family="'DroidSans'" font-size="38.8889" gorn="0.1.27.0" id="label55">A4</text>
     </g>
    </g>
    <line fill="none" stroke="#787878" stroke-linecap="round" stroke-linejoin="round" stroke-width="9.72222" x1="4.86111" x2="200" y1="1100" y2="1100"/>
    <rect fill="none" gorn="0.1.29" height="9.72222" id="connector54pin" width="200" x="0" y="1095.14"/>
    <g fill="none" gorn="0.1.30" height="9.72222" id="connector54terminal" width="0" x="0" y="1095.14"/>
    <g transform="matrix(1, 0, 0, 1, 219.444, 1109.72)">
     <g>
      <text fill="#8C8C8C" font-family="'DroidSans'" font-size="38.8889" gorn="0.1.31.0" id="label54">A5</text>
     </g>
    </g>
    <line fill="none" stroke="#787878" stroke-linecap="round" stroke-linejoin="round" stroke-width="9.72222" x1="4.86111" x2="200" y1="1200" y2="1200"/>
    <rect fill="none" gorn="0.1.33" height="9.72222" id="connector53pin" width="200" x="0" y="1195.14"/>
    <g fill="none" gorn="0.1.34" height="9.72222" id="connector53terminal" width="0" x="0" y="1195.14"/>
    <g transform="matrix(1, 0, 0, 1, 219.444, 1209.72)">
     <g>
      <text fill="#8C8C8C" font-family="'DroidSans'" font-size="38.8889" gorn="0.1.35.0" id="label53">SCK</text>
     </g>
    </g>
    <line fill="none" stroke="#787878" stroke-linecap="round" stroke-linejoin="round" stroke-width="9.72222" x1="4.86111" x2="200" y1="1300" y2="1300"/>
    <rect fill="none" gorn="0.1.37" height="9.72222" id="connector52pin" width="200" x="0" y="1295.14"/>
    <g fill="none" gorn="0.1.38" height="9.72222" id="connector52terminal" width="0" x="0" y="1295.14"/>
    <g transform="matrix(1, 0, 0, 1, 219.444, 1309.72)">
     <g>
      <text fill="#8C8C8C" font-family="'DroidSans'" font-size="38.8889" gorn="0.1.39.0" id="label52">MOSI</text>
     </g>
    </g>
    <line fill="none" stroke="#787878" stroke-linecap="round" stroke-linejoin="round" stroke-width="9.72222" x1="4.86111" x2="200" y1="1400" y2="1400"/>
    <rect fill="none" gorn="0.1.41" height="9.72222" id="connector51pin" width="200" x="0" y="1395.14"/>
    <g fill="none" gorn="0.1.42" height="9.72222" id="connector51terminal" width="0" x="0" y="1395.14"/>
    <g transform="matrix(1, 0, 0, 1, 219.444, 1409.72)">
     <g>
      <text fill="#8C8C8C" font-family="'DroidSans'" font-size="38.8889" gorn="0.1.43.0" id="label51">MISO</text>
     </g>
    </g>
    <line fill="none" stroke="#787878" stroke-linecap="round" stroke-linejoin="round" stroke-width="9.72222" x1="4.86111" x2="200" y1="1500" y2="1500"/>
    <rect fill="none" gorn="0.1.45" height="9.72222" id="connector49pin" width="200" x="0" y="1495.14"/>
    <g fill="none" gorn="0.1.46" height="9.72222" id="connector49terminal" width="0" x="0" y="1495.14"/>
    <g transform="matrix(1, 0, 0, 1, 219.444, 1509.72)">
     <g>
      <text fill="#8C8C8C" font-family="'DroidSans'" font-size="38.8889" gorn="0.1.47.0" id="label49">TX</text>
     </g>
    </g>
    <line fill="none" stroke="#787878" stroke-linecap="round" stroke-linejoin="round" stroke-width="9.72222" x1="4.86111" x2="200" y1="1600" y2="1600"/>
    <rect fill="none" gorn="0.1.49" height="9.72222" id="connector50pin" width="200" x="0" y="1595.14"/>
    <g fill="none" gorn="0.1.50" height="9.72222" id="connector50terminal" width="0" x="0" y="1595.14"/>
    <g transform="matrix(1, 0, 0, 1, 219.444, 1609.72)">
     <g>
      <text fill="#8C8C8C" font-family="'DroidSans'" font-size="38.8889" gorn="0.1.51.0" id="label50">RX</text>
     </g>
    </g>
    <line fill="none" stroke="#787878" stroke-linecap="round" stroke-linejoin="round" stroke-width="9.72222" x1="4.86111" x2="200" y1="1700" y2="1700"/>
    <rect fill="none" gorn="0.1.53" height="9.72222" id="connector48pin" width="200" x="0" y="1695.14"/>
    <g fill="none" gorn="0.1.54" height="9.72222" id="connector48terminal" width="0" x="0" y="1695.14"/>
    <g transform="matrix(1, 0, 0, 1, 219.444, 1709.72)">
     <g>
      <text fill="#8C8C8C" font-family="'DroidSans'" font-size="38.8889" gorn="0.1.55.0" id="label48">TXD0</text>
     </g>
    </g>
    <line fill="none" stroke="#787878" stroke-linecap="round" stroke-linejoin="round" stroke-width="9.72222" x1="895.139" x2="1095.14" y1="500" y2="500"/>
    <rect fill="none" gorn="0.1.57" height="9.72222" id="connector65pin" width="200" x="900" y="495.139"/>
    <g fill="none" gorn="0.1.58" height="9.72222" id="connector65terminal" width="0" x="1100" y="495.139"/>
    <g transform="matrix(1, 0, 0, 1, 819.46, 509.722)">
     <g>
      <text fill="#8C8C8C" font-family="'DroidSans'" font-size="38.8889" gorn="0.1.59.0" id="label65">EN</text>
     </g>
    </g>
    <line fill="none" stroke="#787878" stroke-linecap="round" stroke-linejoin="round" stroke-width="9.72222" x1="895.139" x2="1095.14" y1="600" y2="600"/>
    <rect fill="none" gorn="0.1.61" height="9.72222" id="connector67pin" width="200" x="900" y="595.139"/>
    <g fill="none" gorn="0.1.62" height="9.72222" id="connector67terminal" width="0" x="1100" y="595.139"/>
    <g transform="matrix(1, 0, 0, 1, 793.753, 609.722)">
     <g>
      <text fill="#8C8C8C" font-family="'DroidSans'" font-size="38.8889" gorn="0.1.63.0" id="label67">D13</text>
     </g>
    </g>
    <line fill="none" stroke="#787878" stroke-linecap="round" stroke-linejoin="round" stroke-width="9.72222" x1="895.139" x2="1095.14" y1="700" y2="700"/>
    <rect fill="none" gorn="0.1.65" height="9.72222" id="connector68pin" width="200" x="900" y="695.139"/>
    <g fill="none" gorn="0.1.66" height="9.72222" id="connector68terminal" width="0" x="1100" y="695.139"/>
    <g transform="matrix(1, 0, 0, 1, 793.753, 709.722)">
     <g>
      <text fill="#8C8C8C" font-family="'DroidSans'" font-size="38.8889" gorn="0.1.67.0" id="label68">D12</text>
     </g>
    </g>
    <line fill="none" stroke="#787878" stroke-linecap="round" stroke-linejoin="round" stroke-width="9.72222" x1="895.139" x2="1095.14" y1="800" y2="800"/>
    <rect fill="none" gorn="0.1.69" height="9.72222" id="connector69pin" width="200" x="900" y="795.139"/>
    <g fill="none" gorn="0.1.70" height="9.72222" id="connector69terminal" width="0" x="1100" y="795.139"/>
    <g transform="matrix(1, 0, 0, 1, 793.753, 809.722)">
     <g>
      <text fill="#8C8C8C" font-family="'DroidSans'" font-size="38.8889" gorn="0.1.71.0" id="label69">D11</text>
     </g>
    </g>
    <line fill="none" stroke="#787878" stroke-linecap="round" stroke-linejoin="round" stroke-width="9.72222" x1="895.139" x2="1095.14" y1="900" y2="900"/>
    <rect fill="none" gorn="0.1.73" height="9.72222" id="connector70pin" width="200" x="900" y="895.139"/>
    <g fill="none" gorn="0.1.74" height="9.72222" id="connector70terminal" width="0" x="1100" y="895.139"/>
    <g transform="matrix(1, 0, 0, 1, 793.753, 909.722)">
     <g>
      <text fill="#8C8C8C" font-family="'DroidSans'" font-size="38.8889" gorn="0.1.75.0" id="label70">D10</text>
     </g>
    </g>
    <line fill="none" stroke="#787878" stroke-linecap="round" stroke-linejoin="round" stroke-width="9.72222" x1="895.139" x2="1095.14" y1="1000" y2="1000"/>
    <rect fill="none" gorn="0.1.77" height="9.72222" id="connector71pin" width="200" x="900" y="995.139"/>
    <g fill="none" gorn="0.1.78" height="9.72222" id="connector71terminal" width="0" x="1100" y="995.139"/>
    <g transform="matrix(1, 0, 0, 1, 820.528, 1009.72)">
     <g>
      <text fill="#8C8C8C" font-family="'DroidSans'" font-size="38.8889" gorn="0.1.79.0" id="label71">D9</text>
     </g>
    </g>
    <line fill="none" stroke="#787878" stroke-linecap="round" stroke-linejoin="round" stroke-width="9.72222" x1="895.139" x2="1095.14" y1="1100" y2="1100"/>
    <rect fill="none" gorn="0.1.81" height="9.72222" id="connector72pin" width="200" x="900" y="1095.14"/>
    <g fill="none" gorn="0.1.82" height="9.72222" id="connector72terminal" width="0" x="1100" y="1095.14"/>
    <g transform="matrix(1, 0, 0, 1, 820.528, 1109.72)">
     <g>
      <text fill="#8C8C8C" font-family="'DroidSans'" font-size="38.8889" gorn="0.1.83.0" id="label72">D6</text>
     </g>
    </g>
    <line fill="none" stroke="#787878" stroke-linecap="round" stroke-linejoin="round" stroke-width="9.72222" x1="895.139" x2="1095.14" y1="1200" y2="1200"/>
    <rect fill="none" gorn="0.1.85" height="9.72222" id="connector73pin" width="200" x="900" y="1195.14"/>
    <g fill="none" gorn="0.1.86" height="9.72222" id="connector73terminal" width="0" x="1100" y="1195.14"/>
    <g transform="matrix(1, 0, 0, 1, 820.528, 1209.72)">
     <g>
      <text fill="#8C8C8C" font-family="'DroidSans'" font-size="38.8889" gorn="0.1.87.0" id="label73">D5</text>
     </g>
    </g>
    <line fill="none" stroke="#787878" stroke-linecap="round" stroke-linejoin="round" stroke-width="9.72222" x1="895.139" x2="1095.14" y1="1300" y2="1300"/>
    <rect fill="none" gorn="0.1.89" height="9.72222" id="connector31pin" width="200" x="900" y="1295.14"/>
    <g fill="none" gorn="0.1.90" height="9.72222" id="connector31terminal" width="0" x="1100" y="1295.14"/>
    <g transform="matrix(1, 0, 0, 1, 792.994, 1309.72)">
     <g>
      <text fill="#8C8C8C" font-family="'DroidSans'" font-size="38.8889" gorn="0.1.91.0" id="label31">SDA</text>
     </g>
    </g>
    <line fill="none" stroke="#787878" stroke-linecap="round" stroke-linejoin="round" stroke-width="9.72222" x1="895.139" x2="1095.14" y1="1400" y2="1400"/>
    <rect fill="none" gorn="0.1.93" height="9.72222" id="connector32pin" width="200" x="900" y="1395.14"/>
    <g fill="none" gorn="0.1.94" height="9.72222" id="connector32terminal" width="0" x="1100" y="1395.14"/>
    <g transform="matrix(1, 0, 0, 1, 802.132, 1409.72)">
     <g>
      <text fill="#8C8C8C" font-family="'DroidSans'" font-size="38.8889" gorn="0.1.95.0" id="label32">SCL</text>
     </g>
    </g>
    <line fill="none" stroke="#787878" stroke-linecap="round" stroke-linejoin="round" stroke-width="9.72222" x1="300" x2="300" y1="4.86111" y2="200"/>
    <rect fill="none" gorn="0.1.97" height="200" id="connector61pin" width="9.72222" x="295.139" y="0"/>
    <g fill="none" gorn="0.1.98" id="connector61terminal" points="295.139,0,304.861,0,304.861,0"/>
    <g transform="matrix(1, 0, 0, 1, 319.444, 222.222)">
     <g>
      <g>
       <g transform="rotate(270)">
        <g>
         <g>
          <g transform="matrix(1, 0, 0, 1, -94.1806, 0)">
           <g>
            <text fill="#8C8C8C" font-family="'DroidSans'" font-size="38.8889" gorn="0.1.99.0.0.0.0.0" id="label61">3.3V</text>
           </g>
          </g>
         </g>
        </g>
       </g>
      </g>
     </g>
    </g>
    <line fill="none" stroke="#787878" stroke-linecap="round" stroke-linejoin="round" stroke-width="9.72222" x1="400" x2="400" y1="4.86111" y2="200"/>
    <rect fill="none" gorn="0.1.101" height="200" id="connector64pin" width="9.72222" x="395.139" y="0"/>
    <g fill="none" gorn="0.1.102" id="connector64terminal" points="395.139,0,404.861,0,404.861,0"/>
    <g transform="matrix(1, 0, 0, 1, 419.444, 222.222)">
     <g>
      <g>
       <g transform="rotate(270)">
        <g>
         <g>
          <g transform="matrix(1, 0, 0, 1, -109.657, 0)">
           <g>
            <text fill="#8C8C8C" font-family="'DroidSans'" font-size="38.8889" gorn="0.1.103.0.0.0.0.0" id="label64">VBAT</text>
           </g>
          </g>
         </g>
        </g>
       </g>
      </g>
     </g>
    </g>
    <line fill="none" stroke="#787878" stroke-linecap="round" stroke-linejoin="round" stroke-width="9.72222" x1="500" x2="500" y1="4.86111" y2="200"/>
    <rect fill="none" gorn="0.1.105" height="200" id="connector66pin" width="9.72222" x="495.139" y="0"/>
    <g fill="none" gorn="0.1.106" id="connector66terminal" points="495.139,0,504.861,0,504.861,0"/>
    <g transform="matrix(1, 0, 0, 1, 519.444, 222.222)">
     <g>
      <g>
       <g transform="rotate(270)">
        <g>
         <g>
          <g transform="matrix(1, 0, 0, 1, -116.968, 0)">
           <g>
            <text fill="#8C8C8C" font-family="'DroidSans'" font-size="38.8889" gorn="0.1.107.0.0.0.0.0" id="label66">VBUS</text>
           </g>
          </g>
         </g>
        </g>
       </g>
      </g>
     </g>
    </g>
    <line fill="none" stroke="#787878" stroke-linecap="round" stroke-linejoin="round" stroke-width="9.72222" x1="600" x2="600" y1="4.86111" y2="200"/>
    <rect fill="none" gorn="0.1.109" height="200" id="connector30pin" width="9.72222" x="595.139" y="0"/>
    <g fill="none" gorn="0.1.110" id="connector30terminal" points="595.139,0,604.861,0,604.861,0"/>
    <g transform="matrix(1, 0, 0, 1, 619.444, 222.222)">
     <g>
      <g>
       <g transform="rotate(270)">
        <g>
         <g>
          <g transform="matrix(1, 0, 0, 1, -203.922, 0)">
           <g>
            <text fill="#8C8C8C" font-family="'DroidSans'" font-size="38.8889" gorn="0.1.111.0.0.0.0.0" id="label30">VSENSOR</text>
           </g>
          </g>
         </g>
        </g>
       </g>
      </g>
     </g>
    </g>
    <line fill="none" stroke="#787878" stroke-linecap="round" stroke-linejoin="round" stroke-width="9.72222" x1="500" x2="500" y1="1900" y2="2095.14"/>
    <rect fill="none" gorn="0.1.113" height="200" id="connector29pin" width="9.72222" x="495.139" y="1900"/>
    <g fill="none" gorn="0.1.114" id="connector29terminal" points="495.139,2100,504.861,2100,504.861,2100"/>
    <g transform="matrix(1, 0, 0, 1, 519.444, 1877.78)">
     <g>
      <g>
       <g transform="rotate(270)">
        <g>
         <g>
          <g transform="matrix(1, 0, 0, 1, 0.000342807, 0)">
           <g>
            <text fill="#8C8C8C" font-family="'DroidSans'" font-size="38.8889" gorn="0.1.115.0.0.0.0.0" id="label29">GND</text>
           </g>
          </g>
         </g>
        </g>
       </g>
      </g>
     </g>
    </g>
    <rect fill="none" gorn="0.1.116" height="200" id="connector62pin" width="9.72222" x="295.139" y="0"/>
    <g fill="none" gorn="0.1.117" id="connector62terminal" points="295.139,0,304.861,0,304.861,0"/>
    <rect fill="none" gorn="0.1.118" height="200" id="connector218pin" width="9.72222" x="395.139" y="0"/>
    <g fill="none" gorn="0.1.119" id="connector218terminal" points="395.139,0,404.861,0,404.861,0"/>
    <rect fill="none" gorn="0.1.120" height="200" id="connector60pin" width="9.72222" x="495.139" y="1900"/>
    <g fill="none" gorn="0.1.121" id="connector60terminal" points="495.139,2100,504.861,2100,504.861,2100"/>
    <rect fill="none" gorn="0.1.122" height="200" id="connector217pin" width="9.72222" x="495.139" y="1900"/>
    <g fill="none" gorn="0.1.123" id="connector217terminal" points="495.139,2100,504.861,2100,504.861,2100"/>
    <rect fill="none" gorn="0.1.124" height="9.72222" id="connector75pin" width="200" x="900" y="1295.14"/>
    <g fill="none" gorn="0.1.125" height="9.72222" id="connector75terminal" width="0" x="1100" y="1295.14"/>
    <rect fill="none" gorn="0.1.126" height="9.72222" id="connector74pin" width="200" x="900" y="1395.14"/>
    <g fill="none" gorn="0.1.127" height="9.72222" id="connector74terminal" width="0" x="1100" y="1395.14"/>
   </g>
  </g>
 </g>
 <g partID="10170">
  <g transform="translate(8388.89,5555.56)">
   <g transform="matrix(1, 0, 0, 1, 4.8611, -102)">
    <g id="schematic">
     <g gorn="0.3.0.0.0">
      <rect class="interior rect" fill="#ffffff" gorn="0.3.0.0.0.0" height="885.5" id="rect15332" stroke="#000000" stroke-width="12.5" style="stroke-linecap:round" width="487.5" x="206.25" y="108.25"/>
      <line class="pin" fill="none" gorn="0.3.0.0.0.1" id="connector3pin" stroke="#787878" stroke-width="9.7222" style="stroke-linecap:round" x1="4.8611" x2="204.861" y1="500" y2="500"/>
      <g class="terminal" fill="none" gorn="0.3.0.0.0.2" height="0.0194444" id="connector3terminal" stroke="none" stroke-width="0" width="0.419445" x="-0.209722" y="499.992"/>
      <text class="text" fill="#8c8c8c" font-size="48.611" gorn="0.3.0.0.0.3" id="text15343" stroke="none" stroke-width="0" style="font-family:Droid Sans;text-anchor:start;" x="224.305" y="509.72">SDA</text>
      <line class="pin" fill="none" gorn="0.3.0.0.0.4" id="connector4pin" stroke="#787878" stroke-width="9.7222" style="stroke-linecap:round" x1="4.8611" x2="204.861" y1="600" y2="600"/>
      <g class="terminal" fill="none" gorn="0.3.0.0.0.5" height="0.0194444" id="connector4terminal" stroke="none" stroke-width="0" width="0.419445" x="-0.209722" y="599.992"/>
      <text class="text" fill="#8c8c8c" font-size="48.611" gorn="0.3.0.0.0.6" id="text15347" stroke="none" stroke-width="0" style="font-family:Droid Sans;text-anchor:start;" x="224.305" y="609.72">XDA</text>
      <g fill="#000000" fill-opacity="1" font-size="59.0278" gorn="0.3.0.0.0.7" id="text15964" stroke="none" stroke-width="10.4167" style="font-style:normal;font-variant:normal;font-weight:normal;font-stretch:normal;line-height:1.25;font-family:Droid Sans;-inkscape-font-specification:Droid Sans;text-align:center;letter-spacing:0;word-spacing:0;text-anchor:middle;" xml:space="preserve" xmlns:xml="http://www.w3.org/XML/1998/namespace">
       <text font-size="59.0278" gorn="0.3.0.0.0.7.0" id="tspan15962" stroke-width="10.4167" style="font-style:normal;font-variant:normal;font-weight:normal;font-stretch:normal;font-family:Droid Sans;-inkscape-font-specification:Droid Sans;text-align:center;text-anchor:middle;" x="449.986" y="443.825">MPU</text>
       <text font-size="59.0278" gorn="0.3.0.0.0.7.1" id="tspan15966" stroke-width="10.4167" style="font-style:normal;font-variant:normal;font-weight:normal;font-stretch:normal;font-family:Droid Sans;-inkscape-font-specification:Droid Sans;text-align:center;text-anchor:middle;" x="449.986" y="517.61">6050</text>
       <text font-size="59.0278" gorn="0.3.0.0.0.7.2" id="tspan15968" stroke-width="10.4167" style="font-style:normal;font-variant:normal;font-weight:normal;font-stretch:normal;font-family:Droid Sans;-inkscape-font-specification:Droid Sans;text-align:center;text-anchor:middle;" x="449.986" y="591.394">(GY-521)</text>
      </g>
      <line class="pin" fill="none" gorn="0.3.0.0.0.8" id="connector2pin" stroke="#787878" stroke-width="9.7222" style="stroke-linecap:round" x1="4.8611" x2="204.861" y1="399.805" y2="399.805"/>
      <g class="terminal" fill="none" gorn="0.3.0.0.0.9" height="0.0194444" id="connector2terminal" stroke="none" stroke-width="0" width="0.419445" x="-0.209722" y="399.795"/>
      <text class="text" fill="#8c8c8c" font-size="48.611" gorn="0.3.0.0.0.10" id="text15983" stroke="none" stroke-width="0" style="font-family:Droid Sans;text-anchor:start;" x="224.305" y="409.525">SCL</text>
      <line class="pin" fill="none" gorn="0.3.0.0.0.11" id="connector1pin" stroke="#787878" stroke-width="9.7222" style="stroke-linecap:round" x1="4.8611" x2="204.861" y1="299.805" y2="299.805"/>
      <g class="terminal" fill="none" gorn="0.3.0.0.0.12" height="0.0194444" id="connector1terminal" stroke="none" stroke-width="0" width="0.419445" x="-0.209722" y="299.795"/>
      <text class="text" fill="#8c8c8c" font-size="48.611" gorn="0.3.0.0.0.13" id="text15989" stroke="none" stroke-width="0" style="font-family:Droid Sans;text-anchor:start;" x="224.305" y="309.525">GND</text>
      <line class="pin" fill="none" gorn="0.3.0.0.0.14" id="connector5pin" stroke="#787878" stroke-width="9.7222" style="stroke-linecap:round" x1="4.8611" x2="204.861" y1="700.28" y2="700.28"/>
      <g class="terminal" fill="none" gorn="0.3.0.0.0.15" height="0.0194444" id="connector5terminal" stroke="none" stroke-width="0" width="0.419445" x="-0.209722" y="700.272"/>
      <text class="text" fill="#8c8c8c" font-size="48.611" gorn="0.3.0.0.0.16" id="text15995" stroke="none" stroke-width="0" style="font-family:Droid Sans;text-anchor:start;" x="224.305" y="710">XCL</text>
      <line class="pin" fill="none" gorn="0.3.0.0.0.17" id="connector6pin" stroke="#787878" stroke-width="9.7222" style="stroke-linecap:round" x1="4.8611" x2="204.861" y1="800.28" y2="800.28"/>
      <g class="terminal" fill="none" gorn="0.3.0.0.0.18" height="0.0194444" id="connector6terminal" stroke="none" stroke-width="0" width="0.419445" x="-0.209722" y="800.272"/>
      <text class="text" fill="#8c8c8c" font-size="48.611" gorn="0.3.0.0.0.19" id="text16001" stroke="none" stroke-width="0" style="font-family:Droid Sans;text-anchor:start;" x="224.305" y="810">AD0</text>
      <line class="pin" fill="none" gorn="0.3.0.0.0.20" id="connector0pin" stroke="#787878" stroke-width="9.7222" style="stroke-linecap:round" x1="4.8611" x2="204.861" y1="199.805" y2="199.805"/>
      <g class="terminal" fill="none" gorn="0.3.0.0.0.21" height="0.0194444" id="connector0terminal" stroke="none" stroke-width="0" width="0.419445" x="-0.209722" y="199.795"/>
      <text class="text" fill="#8c8c8c" font-size="48.611" gorn="0.3.0.0.0.22" id="text16013" stroke="none" stroke-width="0" style="font-family:Droid Sans;text-anchor:start;" x="224.305" y="209.525">VCC</text>
      <line class="pin" fill="none" gorn="0.3.0.0.0.23" id="connector7pin" stroke="#787878" stroke-width="9.7222" style="stroke-linecap:round" x1="4.8611" x2="204.861" y1="899.805" y2="899.805"/>
      <g class="terminal" fill="none" gorn="0.3.0.0.0.24" height="0.0194444" id="connector7terminal" stroke="none" stroke-width="0" width="0.419445" x="-0.209722" y="899.795"/>
      <text class="text" fill="#8c8c8c" font-size="48.611" gorn="0.3.0.0.0.25" id="text16040" stroke="none" stroke-width="0" style="font-family:Droid Sans;text-anchor:start;" x="224.305" y="909.525">INT</text>
     </g>
    </g>
   </g>
  </g>
 </g>
 <g partID="10180">
  <g transform="translate(933.333,5655.56)">
   <g id="schematic" >
    <rect fill="none" height="688.889" stroke="#444" stroke-width="11.1111" width="1122.22" x="22.2222"  y="22.2222"/>
    <circle cx="1144.44" cy="177.778" fill="#c1a266" id="connector0pin" r="22.2222" stroke="#6c5634" stroke-width="8.88889" />
    <circle cx="1144.44" cy="544.444" fill="#c1a266" id="connector1pin" r="22.2222" stroke="#6c5634" stroke-width="8.88889" />
   </g>
  </g>
 </g>
 <g partID="10190">
  <g transform="translate(2777.78,5844.44)">
   <g id="schematic" >
    <rect fill="none" height="266.667" stroke="#444" stroke-width="11.1111" width="422.222" x="22.2222"  y="22.2222"/>
    <circle cx="77.7778" cy="288.889" fill="#c1a266" id="connector0pin" r="22.2222" stroke="#6c5634" stroke-width="8.88889" />
    <circle cx="233.333" cy="288.889" fill="#c1a266" id="connector1pin" r="22.2222" stroke="#6c5634" stroke-width="8.88889" />
    <circle cx="388.889" cy="288.889" fill="#c1a266" id="connector2pin" r="22.2222" stroke="#6c5634" stroke-width="8.88889" />
   </g>
  </g>
 </g>
 <g partID="10200">
  <g transform="translate(4500,8166.67)">
   <g id="schematic" >
    <rect fill="none" height="311.111" stroke="#444" stroke-width="11.1111" width="288.889" x="22.2222"  y="22.2222"/>
    <circle cx="166.667" cy="44.4444" fill="#c1a266" id="connector0pin" r="22.2222" stroke="#6c5634" stroke-width="8.88889" />
   </g>
  </g>
 </g>
 <g partID="10210">
  <g transform="translate(5666.67,8166.67)">
   <g id="schematic" >
    <rect fill="none" height="311.111" stroke="#444" stroke-width="11.1111" width="288.889" x="22.2222"  y="22.2222"/>
    <circle cx="166.667" cy="44.4444" fill="#c1a266" id="connector0pin" r="22.2222" stroke="#6c5634" stroke-width="8.88889" />
   </g>
  </g>
 </g>
 <g partID="10220">
  <g transform="translate(6833.33,8166.67)">
   <g id="schematic" >
    <rect fill="none" height="311.111" stroke="#444" stroke-width="11.1111" width="288.889" x="22.2222"  y="22.2222"/>
    <circle cx="166.667" cy="44.4444" fill="#c1a266" id="connector0pin" r="22.2222" stroke="#6c5634" stroke-width="8.88889" />
   </g>
  </g>
 </g>
 <g partID="10230">
  <g transform="translate(8000,8166.67)">
   <g id="schematic" >
    <rect fill="none" height="311.111" stroke="#444" stroke-width="11.1111" width="288.889" x="22.2222"  y="22.2222"/>
    <circle cx="166.667" cy="44.4444" fill="#c1a266" id="connector0pin" r="22.2222" stroke="#6c5634" stroke-width="8.88889" />
   </g>
  </g>
 </g>
 <g partID="10240">
  <g transform="translate(9166.67,8166.67)">
   <g id="schematic" >
    <rect fill="none" height="311.111" stroke="#444" stroke-width="11.1111" width="288.889" x="22.2222"  y="22.2222"/>
    <circle cx="166.667" cy="44.4444" fill="#c1a266" id="connector0pin" r="22.2222" stroke="#6c5634" stroke-width="8.88889" />
   </g>
  </g>
 </g>
 <g partID="10250">
  <g transform="translate(1833.33,8177.78)">
   <g id="schematic" >
    <rect fill="none" height="566.667" stroke="#444" stroke-width="11.1111" width="1066.67" x="22.2222"  y="22.2222"/>
    <circle cx="55.5556" cy="305.556" fill="#c1a266" id="connector0pin" r="22.2222" stroke="#6c5634" stroke-width="8.88889" />
   </g>
  </g>
 </g>
</svg>
